<mxfile host="app.diagrams.net" modified="2023-12-13T16:40:10.287Z" agent="Mozilla/5.0 (Windows NT 10.0; Win64; x64) AppleWebKit/537.36 (KHTML, like Gecko) Chrome/120.0.0.0 Safari/537.36" etag="cAl6JHS0fDriYjfHAv0U" version="22.1.8" type="github" pages="3">
  <diagram name="Page-1" id="JvHdXsMgzBRtFRvg_39h">
    <mxGraphModel dx="1050" dy="522" grid="0" gridSize="10" guides="1" tooltips="1" connect="1" arrows="1" fold="1" page="1" pageScale="1" pageWidth="850" pageHeight="1100" math="0" shadow="0">
      <root>
        <mxCell id="0" />
        <mxCell id="1" parent="0" />
        <mxCell id="pVyGS9Oo-2bHPVRxHu1q-1" value="User" style="shape=umlActor;verticalLabelPosition=bottom;verticalAlign=top;html=1;outlineConnect=0;" vertex="1" parent="1">
          <mxGeometry x="190" y="230" width="30" height="60" as="geometry" />
        </mxCell>
        <mxCell id="pVyGS9Oo-2bHPVRxHu1q-3" value="Booking Tiket" style="ellipse;whiteSpace=wrap;html=1;" vertex="1" parent="1">
          <mxGeometry x="380" y="110" width="145" height="60" as="geometry" />
        </mxCell>
        <mxCell id="pVyGS9Oo-2bHPVRxHu1q-4" value="Cari Tiket" style="ellipse;whiteSpace=wrap;html=1;" vertex="1" parent="1">
          <mxGeometry x="380" y="220" width="145" height="60" as="geometry" />
        </mxCell>
        <mxCell id="pVyGS9Oo-2bHPVRxHu1q-5" value="Login" style="ellipse;whiteSpace=wrap;html=1;" vertex="1" parent="1">
          <mxGeometry x="385" y="330" width="135" height="60" as="geometry" />
        </mxCell>
        <mxCell id="pVyGS9Oo-2bHPVRxHu1q-6" value="Register" style="ellipse;whiteSpace=wrap;html=1;" vertex="1" parent="1">
          <mxGeometry x="385" y="440" width="135" height="60" as="geometry" />
        </mxCell>
        <mxCell id="pVyGS9Oo-2bHPVRxHu1q-23" value="" style="endArrow=none;html=1;rounded=0;exitX=1;exitY=0.3333333333333333;exitDx=0;exitDy=0;exitPerimeter=0;entryX=0;entryY=0.5;entryDx=0;entryDy=0;" edge="1" parent="1" source="pVyGS9Oo-2bHPVRxHu1q-1" target="pVyGS9Oo-2bHPVRxHu1q-3">
          <mxGeometry width="50" height="50" relative="1" as="geometry">
            <mxPoint x="400" y="170" as="sourcePoint" />
            <mxPoint x="450" y="120" as="targetPoint" />
          </mxGeometry>
        </mxCell>
        <mxCell id="pVyGS9Oo-2bHPVRxHu1q-25" value="" style="endArrow=none;html=1;rounded=0;exitX=1;exitY=0.3333333333333333;exitDx=0;exitDy=0;exitPerimeter=0;entryX=0;entryY=0.5;entryDx=0;entryDy=0;" edge="1" parent="1" source="pVyGS9Oo-2bHPVRxHu1q-1" target="pVyGS9Oo-2bHPVRxHu1q-4">
          <mxGeometry width="50" height="50" relative="1" as="geometry">
            <mxPoint x="230" y="260" as="sourcePoint" />
            <mxPoint x="390" y="150" as="targetPoint" />
          </mxGeometry>
        </mxCell>
        <mxCell id="pVyGS9Oo-2bHPVRxHu1q-26" value="" style="endArrow=none;html=1;rounded=0;exitX=1;exitY=0.3333333333333333;exitDx=0;exitDy=0;exitPerimeter=0;entryX=0;entryY=0.5;entryDx=0;entryDy=0;" edge="1" parent="1" source="pVyGS9Oo-2bHPVRxHu1q-1" target="pVyGS9Oo-2bHPVRxHu1q-5">
          <mxGeometry width="50" height="50" relative="1" as="geometry">
            <mxPoint x="230" y="260" as="sourcePoint" />
            <mxPoint x="390" y="260" as="targetPoint" />
          </mxGeometry>
        </mxCell>
        <mxCell id="pVyGS9Oo-2bHPVRxHu1q-27" value="" style="endArrow=none;html=1;rounded=0;exitX=1;exitY=0.3333333333333333;exitDx=0;exitDy=0;exitPerimeter=0;entryX=0;entryY=0.5;entryDx=0;entryDy=0;" edge="1" parent="1" source="pVyGS9Oo-2bHPVRxHu1q-1" target="pVyGS9Oo-2bHPVRxHu1q-6">
          <mxGeometry width="50" height="50" relative="1" as="geometry">
            <mxPoint x="230" y="260" as="sourcePoint" />
            <mxPoint x="395" y="370" as="targetPoint" />
          </mxGeometry>
        </mxCell>
      </root>
    </mxGraphModel>
  </diagram>
  <diagram id="31tab4CufBy9yooADmAE" name="Page-2">
    <mxGraphModel dx="1050" dy="522" grid="0" gridSize="10" guides="1" tooltips="1" connect="1" arrows="1" fold="1" page="1" pageScale="1" pageWidth="850" pageHeight="1100" math="0" shadow="0">
      <root>
        <mxCell id="0" />
        <mxCell id="1" parent="0" />
        <mxCell id="E_a_Ba5fsmVITV0HpG3t-5" value="Booking Flight" style="shape=table;startSize=30;container=1;collapsible=1;childLayout=tableLayout;fixedRows=1;rowLines=0;fontStyle=1;align=center;resizeLast=1;html=1;" vertex="1" parent="1">
          <mxGeometry x="280" y="30" width="180" height="120" as="geometry" />
        </mxCell>
        <mxCell id="E_a_Ba5fsmVITV0HpG3t-6" value="" style="shape=tableRow;horizontal=0;startSize=0;swimlaneHead=0;swimlaneBody=0;fillColor=none;collapsible=0;dropTarget=0;points=[[0,0.5],[1,0.5]];portConstraint=eastwest;top=0;left=0;right=0;bottom=1;" vertex="1" parent="E_a_Ba5fsmVITV0HpG3t-5">
          <mxGeometry y="30" width="180" height="30" as="geometry" />
        </mxCell>
        <mxCell id="E_a_Ba5fsmVITV0HpG3t-7" value="PK" style="shape=partialRectangle;connectable=0;fillColor=none;top=0;left=0;bottom=0;right=0;fontStyle=1;overflow=hidden;whiteSpace=wrap;html=1;" vertex="1" parent="E_a_Ba5fsmVITV0HpG3t-6">
          <mxGeometry width="30" height="30" as="geometry">
            <mxRectangle width="30" height="30" as="alternateBounds" />
          </mxGeometry>
        </mxCell>
        <mxCell id="E_a_Ba5fsmVITV0HpG3t-8" value="id" style="shape=partialRectangle;connectable=0;fillColor=none;top=0;left=0;bottom=0;right=0;align=left;spacingLeft=6;fontStyle=5;overflow=hidden;whiteSpace=wrap;html=1;" vertex="1" parent="E_a_Ba5fsmVITV0HpG3t-6">
          <mxGeometry x="30" width="150" height="30" as="geometry">
            <mxRectangle width="150" height="30" as="alternateBounds" />
          </mxGeometry>
        </mxCell>
        <mxCell id="E_a_Ba5fsmVITV0HpG3t-9" value="" style="shape=tableRow;horizontal=0;startSize=0;swimlaneHead=0;swimlaneBody=0;fillColor=none;collapsible=0;dropTarget=0;points=[[0,0.5],[1,0.5]];portConstraint=eastwest;top=0;left=0;right=0;bottom=0;" vertex="1" parent="E_a_Ba5fsmVITV0HpG3t-5">
          <mxGeometry y="60" width="180" height="30" as="geometry" />
        </mxCell>
        <mxCell id="E_a_Ba5fsmVITV0HpG3t-10" value="FK" style="shape=partialRectangle;connectable=0;fillColor=none;top=0;left=0;bottom=0;right=0;editable=1;overflow=hidden;whiteSpace=wrap;html=1;" vertex="1" parent="E_a_Ba5fsmVITV0HpG3t-9">
          <mxGeometry width="30" height="30" as="geometry">
            <mxRectangle width="30" height="30" as="alternateBounds" />
          </mxGeometry>
        </mxCell>
        <mxCell id="E_a_Ba5fsmVITV0HpG3t-11" value="flight_id" style="shape=partialRectangle;connectable=0;fillColor=none;top=0;left=0;bottom=0;right=0;align=left;spacingLeft=6;overflow=hidden;whiteSpace=wrap;html=1;" vertex="1" parent="E_a_Ba5fsmVITV0HpG3t-9">
          <mxGeometry x="30" width="150" height="30" as="geometry">
            <mxRectangle width="150" height="30" as="alternateBounds" />
          </mxGeometry>
        </mxCell>
        <mxCell id="E_a_Ba5fsmVITV0HpG3t-12" value="" style="shape=tableRow;horizontal=0;startSize=0;swimlaneHead=0;swimlaneBody=0;fillColor=none;collapsible=0;dropTarget=0;points=[[0,0.5],[1,0.5]];portConstraint=eastwest;top=0;left=0;right=0;bottom=0;" vertex="1" parent="E_a_Ba5fsmVITV0HpG3t-5">
          <mxGeometry y="90" width="180" height="30" as="geometry" />
        </mxCell>
        <mxCell id="E_a_Ba5fsmVITV0HpG3t-13" value="FK" style="shape=partialRectangle;connectable=0;fillColor=none;top=0;left=0;bottom=0;right=0;editable=1;overflow=hidden;whiteSpace=wrap;html=1;" vertex="1" parent="E_a_Ba5fsmVITV0HpG3t-12">
          <mxGeometry width="30" height="30" as="geometry">
            <mxRectangle width="30" height="30" as="alternateBounds" />
          </mxGeometry>
        </mxCell>
        <mxCell id="E_a_Ba5fsmVITV0HpG3t-14" value="user_id" style="shape=partialRectangle;connectable=0;fillColor=none;top=0;left=0;bottom=0;right=0;align=left;spacingLeft=6;overflow=hidden;whiteSpace=wrap;html=1;" vertex="1" parent="E_a_Ba5fsmVITV0HpG3t-12">
          <mxGeometry x="30" width="150" height="30" as="geometry">
            <mxRectangle width="150" height="30" as="alternateBounds" />
          </mxGeometry>
        </mxCell>
        <mxCell id="E_a_Ba5fsmVITV0HpG3t-18" value="Flight" style="shape=table;startSize=30;container=1;collapsible=1;childLayout=tableLayout;fixedRows=1;rowLines=0;fontStyle=1;align=center;resizeLast=1;html=1;" vertex="1" parent="1">
          <mxGeometry x="520" y="160" width="180" height="210" as="geometry" />
        </mxCell>
        <mxCell id="E_a_Ba5fsmVITV0HpG3t-19" value="" style="shape=tableRow;horizontal=0;startSize=0;swimlaneHead=0;swimlaneBody=0;fillColor=none;collapsible=0;dropTarget=0;points=[[0,0.5],[1,0.5]];portConstraint=eastwest;top=0;left=0;right=0;bottom=1;" vertex="1" parent="E_a_Ba5fsmVITV0HpG3t-18">
          <mxGeometry y="30" width="180" height="30" as="geometry" />
        </mxCell>
        <mxCell id="E_a_Ba5fsmVITV0HpG3t-20" value="PK" style="shape=partialRectangle;connectable=0;fillColor=none;top=0;left=0;bottom=0;right=0;fontStyle=1;overflow=hidden;whiteSpace=wrap;html=1;" vertex="1" parent="E_a_Ba5fsmVITV0HpG3t-19">
          <mxGeometry width="30" height="30" as="geometry">
            <mxRectangle width="30" height="30" as="alternateBounds" />
          </mxGeometry>
        </mxCell>
        <mxCell id="E_a_Ba5fsmVITV0HpG3t-21" value="id" style="shape=partialRectangle;connectable=0;fillColor=none;top=0;left=0;bottom=0;right=0;align=left;spacingLeft=6;fontStyle=5;overflow=hidden;whiteSpace=wrap;html=1;" vertex="1" parent="E_a_Ba5fsmVITV0HpG3t-19">
          <mxGeometry x="30" width="150" height="30" as="geometry">
            <mxRectangle width="150" height="30" as="alternateBounds" />
          </mxGeometry>
        </mxCell>
        <mxCell id="E_a_Ba5fsmVITV0HpG3t-22" value="" style="shape=tableRow;horizontal=0;startSize=0;swimlaneHead=0;swimlaneBody=0;fillColor=none;collapsible=0;dropTarget=0;points=[[0,0.5],[1,0.5]];portConstraint=eastwest;top=0;left=0;right=0;bottom=0;" vertex="1" parent="E_a_Ba5fsmVITV0HpG3t-18">
          <mxGeometry y="60" width="180" height="30" as="geometry" />
        </mxCell>
        <mxCell id="E_a_Ba5fsmVITV0HpG3t-23" value="" style="shape=partialRectangle;connectable=0;fillColor=none;top=0;left=0;bottom=0;right=0;editable=1;overflow=hidden;whiteSpace=wrap;html=1;" vertex="1" parent="E_a_Ba5fsmVITV0HpG3t-22">
          <mxGeometry width="30" height="30" as="geometry">
            <mxRectangle width="30" height="30" as="alternateBounds" />
          </mxGeometry>
        </mxCell>
        <mxCell id="E_a_Ba5fsmVITV0HpG3t-24" value="maskapai" style="shape=partialRectangle;connectable=0;fillColor=none;top=0;left=0;bottom=0;right=0;align=left;spacingLeft=6;overflow=hidden;whiteSpace=wrap;html=1;" vertex="1" parent="E_a_Ba5fsmVITV0HpG3t-22">
          <mxGeometry x="30" width="150" height="30" as="geometry">
            <mxRectangle width="150" height="30" as="alternateBounds" />
          </mxGeometry>
        </mxCell>
        <mxCell id="E_a_Ba5fsmVITV0HpG3t-25" value="" style="shape=tableRow;horizontal=0;startSize=0;swimlaneHead=0;swimlaneBody=0;fillColor=none;collapsible=0;dropTarget=0;points=[[0,0.5],[1,0.5]];portConstraint=eastwest;top=0;left=0;right=0;bottom=0;" vertex="1" parent="E_a_Ba5fsmVITV0HpG3t-18">
          <mxGeometry y="90" width="180" height="30" as="geometry" />
        </mxCell>
        <mxCell id="E_a_Ba5fsmVITV0HpG3t-26" value="" style="shape=partialRectangle;connectable=0;fillColor=none;top=0;left=0;bottom=0;right=0;editable=1;overflow=hidden;whiteSpace=wrap;html=1;" vertex="1" parent="E_a_Ba5fsmVITV0HpG3t-25">
          <mxGeometry width="30" height="30" as="geometry">
            <mxRectangle width="30" height="30" as="alternateBounds" />
          </mxGeometry>
        </mxCell>
        <mxCell id="E_a_Ba5fsmVITV0HpG3t-27" value="jam_berangkat" style="shape=partialRectangle;connectable=0;fillColor=none;top=0;left=0;bottom=0;right=0;align=left;spacingLeft=6;overflow=hidden;whiteSpace=wrap;html=1;" vertex="1" parent="E_a_Ba5fsmVITV0HpG3t-25">
          <mxGeometry x="30" width="150" height="30" as="geometry">
            <mxRectangle width="150" height="30" as="alternateBounds" />
          </mxGeometry>
        </mxCell>
        <mxCell id="E_a_Ba5fsmVITV0HpG3t-31" value="" style="shape=tableRow;horizontal=0;startSize=0;swimlaneHead=0;swimlaneBody=0;fillColor=none;collapsible=0;dropTarget=0;points=[[0,0.5],[1,0.5]];portConstraint=eastwest;top=0;left=0;right=0;bottom=0;" vertex="1" parent="E_a_Ba5fsmVITV0HpG3t-18">
          <mxGeometry y="120" width="180" height="30" as="geometry" />
        </mxCell>
        <mxCell id="E_a_Ba5fsmVITV0HpG3t-32" value="" style="shape=partialRectangle;connectable=0;fillColor=none;top=0;left=0;bottom=0;right=0;editable=1;overflow=hidden;whiteSpace=wrap;html=1;" vertex="1" parent="E_a_Ba5fsmVITV0HpG3t-31">
          <mxGeometry width="30" height="30" as="geometry">
            <mxRectangle width="30" height="30" as="alternateBounds" />
          </mxGeometry>
        </mxCell>
        <mxCell id="E_a_Ba5fsmVITV0HpG3t-33" value="jam_sampai" style="shape=partialRectangle;connectable=0;fillColor=none;top=0;left=0;bottom=0;right=0;align=left;spacingLeft=6;overflow=hidden;whiteSpace=wrap;html=1;" vertex="1" parent="E_a_Ba5fsmVITV0HpG3t-31">
          <mxGeometry x="30" width="150" height="30" as="geometry">
            <mxRectangle width="150" height="30" as="alternateBounds" />
          </mxGeometry>
        </mxCell>
        <mxCell id="E_a_Ba5fsmVITV0HpG3t-28" value="" style="shape=tableRow;horizontal=0;startSize=0;swimlaneHead=0;swimlaneBody=0;fillColor=none;collapsible=0;dropTarget=0;points=[[0,0.5],[1,0.5]];portConstraint=eastwest;top=0;left=0;right=0;bottom=0;" vertex="1" parent="E_a_Ba5fsmVITV0HpG3t-18">
          <mxGeometry y="150" width="180" height="30" as="geometry" />
        </mxCell>
        <mxCell id="E_a_Ba5fsmVITV0HpG3t-29" value="" style="shape=partialRectangle;connectable=0;fillColor=none;top=0;left=0;bottom=0;right=0;editable=1;overflow=hidden;whiteSpace=wrap;html=1;" vertex="1" parent="E_a_Ba5fsmVITV0HpG3t-28">
          <mxGeometry width="30" height="30" as="geometry">
            <mxRectangle width="30" height="30" as="alternateBounds" />
          </mxGeometry>
        </mxCell>
        <mxCell id="E_a_Ba5fsmVITV0HpG3t-30" value="nama_bandara" style="shape=partialRectangle;connectable=0;fillColor=none;top=0;left=0;bottom=0;right=0;align=left;spacingLeft=6;overflow=hidden;whiteSpace=wrap;html=1;" vertex="1" parent="E_a_Ba5fsmVITV0HpG3t-28">
          <mxGeometry x="30" width="150" height="30" as="geometry">
            <mxRectangle width="150" height="30" as="alternateBounds" />
          </mxGeometry>
        </mxCell>
        <mxCell id="E_a_Ba5fsmVITV0HpG3t-34" value="" style="shape=tableRow;horizontal=0;startSize=0;swimlaneHead=0;swimlaneBody=0;fillColor=none;collapsible=0;dropTarget=0;points=[[0,0.5],[1,0.5]];portConstraint=eastwest;top=0;left=0;right=0;bottom=0;" vertex="1" parent="E_a_Ba5fsmVITV0HpG3t-18">
          <mxGeometry y="180" width="180" height="30" as="geometry" />
        </mxCell>
        <mxCell id="E_a_Ba5fsmVITV0HpG3t-35" value="" style="shape=partialRectangle;connectable=0;fillColor=none;top=0;left=0;bottom=0;right=0;editable=1;overflow=hidden;whiteSpace=wrap;html=1;" vertex="1" parent="E_a_Ba5fsmVITV0HpG3t-34">
          <mxGeometry width="30" height="30" as="geometry">
            <mxRectangle width="30" height="30" as="alternateBounds" />
          </mxGeometry>
        </mxCell>
        <mxCell id="E_a_Ba5fsmVITV0HpG3t-36" value="harga" style="shape=partialRectangle;connectable=0;fillColor=none;top=0;left=0;bottom=0;right=0;align=left;spacingLeft=6;overflow=hidden;whiteSpace=wrap;html=1;" vertex="1" parent="E_a_Ba5fsmVITV0HpG3t-34">
          <mxGeometry x="30" width="150" height="30" as="geometry">
            <mxRectangle width="150" height="30" as="alternateBounds" />
          </mxGeometry>
        </mxCell>
        <mxCell id="E_a_Ba5fsmVITV0HpG3t-37" value="Users" style="shape=table;startSize=30;container=1;collapsible=1;childLayout=tableLayout;fixedRows=1;rowLines=0;fontStyle=1;align=center;resizeLast=1;html=1;" vertex="1" parent="1">
          <mxGeometry x="40" y="210" width="180" height="120" as="geometry" />
        </mxCell>
        <mxCell id="E_a_Ba5fsmVITV0HpG3t-38" value="" style="shape=tableRow;horizontal=0;startSize=0;swimlaneHead=0;swimlaneBody=0;fillColor=none;collapsible=0;dropTarget=0;points=[[0,0.5],[1,0.5]];portConstraint=eastwest;top=0;left=0;right=0;bottom=1;" vertex="1" parent="E_a_Ba5fsmVITV0HpG3t-37">
          <mxGeometry y="30" width="180" height="30" as="geometry" />
        </mxCell>
        <mxCell id="E_a_Ba5fsmVITV0HpG3t-39" value="PK" style="shape=partialRectangle;connectable=0;fillColor=none;top=0;left=0;bottom=0;right=0;fontStyle=1;overflow=hidden;whiteSpace=wrap;html=1;" vertex="1" parent="E_a_Ba5fsmVITV0HpG3t-38">
          <mxGeometry width="30" height="30" as="geometry">
            <mxRectangle width="30" height="30" as="alternateBounds" />
          </mxGeometry>
        </mxCell>
        <mxCell id="E_a_Ba5fsmVITV0HpG3t-40" value="id" style="shape=partialRectangle;connectable=0;fillColor=none;top=0;left=0;bottom=0;right=0;align=left;spacingLeft=6;fontStyle=5;overflow=hidden;whiteSpace=wrap;html=1;" vertex="1" parent="E_a_Ba5fsmVITV0HpG3t-38">
          <mxGeometry x="30" width="150" height="30" as="geometry">
            <mxRectangle width="150" height="30" as="alternateBounds" />
          </mxGeometry>
        </mxCell>
        <mxCell id="E_a_Ba5fsmVITV0HpG3t-41" value="" style="shape=tableRow;horizontal=0;startSize=0;swimlaneHead=0;swimlaneBody=0;fillColor=none;collapsible=0;dropTarget=0;points=[[0,0.5],[1,0.5]];portConstraint=eastwest;top=0;left=0;right=0;bottom=0;" vertex="1" parent="E_a_Ba5fsmVITV0HpG3t-37">
          <mxGeometry y="60" width="180" height="30" as="geometry" />
        </mxCell>
        <mxCell id="E_a_Ba5fsmVITV0HpG3t-42" value="" style="shape=partialRectangle;connectable=0;fillColor=none;top=0;left=0;bottom=0;right=0;editable=1;overflow=hidden;whiteSpace=wrap;html=1;" vertex="1" parent="E_a_Ba5fsmVITV0HpG3t-41">
          <mxGeometry width="30" height="30" as="geometry">
            <mxRectangle width="30" height="30" as="alternateBounds" />
          </mxGeometry>
        </mxCell>
        <mxCell id="E_a_Ba5fsmVITV0HpG3t-43" value="nama" style="shape=partialRectangle;connectable=0;fillColor=none;top=0;left=0;bottom=0;right=0;align=left;spacingLeft=6;overflow=hidden;whiteSpace=wrap;html=1;" vertex="1" parent="E_a_Ba5fsmVITV0HpG3t-41">
          <mxGeometry x="30" width="150" height="30" as="geometry">
            <mxRectangle width="150" height="30" as="alternateBounds" />
          </mxGeometry>
        </mxCell>
        <mxCell id="E_a_Ba5fsmVITV0HpG3t-44" value="" style="shape=tableRow;horizontal=0;startSize=0;swimlaneHead=0;swimlaneBody=0;fillColor=none;collapsible=0;dropTarget=0;points=[[0,0.5],[1,0.5]];portConstraint=eastwest;top=0;left=0;right=0;bottom=0;" vertex="1" parent="E_a_Ba5fsmVITV0HpG3t-37">
          <mxGeometry y="90" width="180" height="30" as="geometry" />
        </mxCell>
        <mxCell id="E_a_Ba5fsmVITV0HpG3t-45" value="" style="shape=partialRectangle;connectable=0;fillColor=none;top=0;left=0;bottom=0;right=0;editable=1;overflow=hidden;whiteSpace=wrap;html=1;" vertex="1" parent="E_a_Ba5fsmVITV0HpG3t-44">
          <mxGeometry width="30" height="30" as="geometry">
            <mxRectangle width="30" height="30" as="alternateBounds" />
          </mxGeometry>
        </mxCell>
        <mxCell id="E_a_Ba5fsmVITV0HpG3t-46" value="password" style="shape=partialRectangle;connectable=0;fillColor=none;top=0;left=0;bottom=0;right=0;align=left;spacingLeft=6;overflow=hidden;whiteSpace=wrap;html=1;" vertex="1" parent="E_a_Ba5fsmVITV0HpG3t-44">
          <mxGeometry x="30" width="150" height="30" as="geometry">
            <mxRectangle width="150" height="30" as="alternateBounds" />
          </mxGeometry>
        </mxCell>
        <mxCell id="E_a_Ba5fsmVITV0HpG3t-53" value="" style="edgeStyle=entityRelationEdgeStyle;fontSize=12;html=1;endArrow=ERzeroToMany;endFill=1;rounded=0;entryX=1;entryY=0.5;entryDx=0;entryDy=0;exitX=0;exitY=0.5;exitDx=0;exitDy=0;" edge="1" parent="1" source="E_a_Ba5fsmVITV0HpG3t-19" target="E_a_Ba5fsmVITV0HpG3t-9">
          <mxGeometry width="100" height="100" relative="1" as="geometry">
            <mxPoint x="370" y="320" as="sourcePoint" />
            <mxPoint x="470" y="220" as="targetPoint" />
          </mxGeometry>
        </mxCell>
        <mxCell id="E_a_Ba5fsmVITV0HpG3t-56" value="" style="edgeStyle=entityRelationEdgeStyle;fontSize=12;html=1;endArrow=ERzeroToMany;endFill=1;rounded=0;entryX=0;entryY=0.5;entryDx=0;entryDy=0;exitX=1;exitY=0.5;exitDx=0;exitDy=0;" edge="1" parent="1" source="E_a_Ba5fsmVITV0HpG3t-38" target="E_a_Ba5fsmVITV0HpG3t-12">
          <mxGeometry width="100" height="100" relative="1" as="geometry">
            <mxPoint x="370" y="320" as="sourcePoint" />
            <mxPoint x="200" y="230" as="targetPoint" />
            <Array as="points">
              <mxPoint x="200" y="250" />
            </Array>
          </mxGeometry>
        </mxCell>
      </root>
    </mxGraphModel>
  </diagram>
  <diagram id="-RvgCEsYwl_UFOC6nBiY" name="Page-3">
    <mxGraphModel dx="1235" dy="614" grid="0" gridSize="10" guides="1" tooltips="1" connect="1" arrows="1" fold="1" page="1" pageScale="1" pageWidth="850" pageHeight="1100" math="0" shadow="0">
      <root>
        <mxCell id="0" />
        <mxCell id="1" parent="0" />
        <mxCell id="osV9cEBqcGt775W0JuBJ-1" value="User" style="swimlane;" vertex="1" parent="1">
          <mxGeometry x="110" y="40" width="250" height="600" as="geometry" />
        </mxCell>
        <mxCell id="osV9cEBqcGt775W0JuBJ-3" value="" style="ellipse;html=1;shape=startState;fillColor=#000000;strokeColor=#ff0000;" vertex="1" parent="osV9cEBqcGt775W0JuBJ-1">
          <mxGeometry x="120" y="40" width="30" height="30" as="geometry" />
        </mxCell>
        <mxCell id="osV9cEBqcGt775W0JuBJ-7" value="Login" style="rounded=1;whiteSpace=wrap;html=1;arcSize=40;fontColor=#000000;fillColor=#ffffc0;strokeColor=#ff0000;" vertex="1" parent="osV9cEBqcGt775W0JuBJ-1">
          <mxGeometry x="75" y="130" width="120" height="40" as="geometry" />
        </mxCell>
        <mxCell id="osV9cEBqcGt775W0JuBJ-8" value="check" style="rhombus;whiteSpace=wrap;html=1;fontColor=#000000;fillColor=#ffffc0;strokeColor=#ff0000;" vertex="1" parent="osV9cEBqcGt775W0JuBJ-1">
          <mxGeometry x="95" y="200" width="80" height="40" as="geometry" />
        </mxCell>
        <mxCell id="osV9cEBqcGt775W0JuBJ-9" value="no" style="edgeStyle=orthogonalEdgeStyle;html=1;align=left;verticalAlign=bottom;endArrow=open;endSize=8;strokeColor=#ff0000;rounded=0;entryX=1;entryY=0.5;entryDx=0;entryDy=0;exitX=1;exitY=0.5;exitDx=0;exitDy=0;" edge="1" source="osV9cEBqcGt775W0JuBJ-8" parent="osV9cEBqcGt775W0JuBJ-1" target="osV9cEBqcGt775W0JuBJ-7">
          <mxGeometry x="-1" relative="1" as="geometry">
            <mxPoint x="270" y="250" as="targetPoint" />
            <Array as="points">
              <mxPoint x="210" y="220" />
              <mxPoint x="210" y="150" />
            </Array>
          </mxGeometry>
        </mxCell>
        <mxCell id="osV9cEBqcGt775W0JuBJ-10" value="yes" style="edgeStyle=orthogonalEdgeStyle;html=1;align=left;verticalAlign=top;endArrow=open;endSize=8;strokeColor=#ff0000;rounded=0;entryX=0.5;entryY=0;entryDx=0;entryDy=0;" edge="1" source="osV9cEBqcGt775W0JuBJ-8" parent="osV9cEBqcGt775W0JuBJ-1" target="osV9cEBqcGt775W0JuBJ-11">
          <mxGeometry x="-1" relative="1" as="geometry">
            <mxPoint x="135" y="290" as="targetPoint" />
            <Array as="points">
              <mxPoint x="135" y="265" />
              <mxPoint x="136" y="265" />
            </Array>
          </mxGeometry>
        </mxCell>
        <mxCell id="osV9cEBqcGt775W0JuBJ-11" value="Mengisi destination penerbangan" style="rounded=1;whiteSpace=wrap;html=1;arcSize=40;fontColor=#000000;fillColor=#ffffc0;strokeColor=#ff0000;" vertex="1" parent="osV9cEBqcGt775W0JuBJ-1">
          <mxGeometry x="75" y="300" width="120" height="40" as="geometry" />
        </mxCell>
        <mxCell id="osV9cEBqcGt775W0JuBJ-15" value="Memilih maskapai" style="rounded=1;whiteSpace=wrap;html=1;arcSize=40;fontColor=#000000;fillColor=#ffffc0;strokeColor=#ff0000;" vertex="1" parent="osV9cEBqcGt775W0JuBJ-1">
          <mxGeometry x="75" y="390" width="120" height="40" as="geometry" />
        </mxCell>
        <mxCell id="osV9cEBqcGt775W0JuBJ-17" value="Menampilkan data pemesanan" style="rounded=1;whiteSpace=wrap;html=1;arcSize=40;fontColor=#000000;fillColor=#ffffc0;strokeColor=#ff0000;" vertex="1" parent="osV9cEBqcGt775W0JuBJ-1">
          <mxGeometry x="75" y="480" width="120" height="40" as="geometry" />
        </mxCell>
        <mxCell id="osV9cEBqcGt775W0JuBJ-20" value="" style="edgeStyle=orthogonalEdgeStyle;html=1;verticalAlign=bottom;endArrow=open;endSize=8;strokeColor=#ff0000;rounded=0;entryX=0.5;entryY=0;entryDx=0;entryDy=0;exitX=0.5;exitY=1;exitDx=0;exitDy=0;" edge="1" parent="osV9cEBqcGt775W0JuBJ-1" source="osV9cEBqcGt775W0JuBJ-15" target="osV9cEBqcGt775W0JuBJ-17">
          <mxGeometry relative="1" as="geometry">
            <mxPoint x="205" y="420" as="targetPoint" />
            <mxPoint x="340" y="420" as="sourcePoint" />
          </mxGeometry>
        </mxCell>
        <mxCell id="osV9cEBqcGt775W0JuBJ-21" value="" style="ellipse;html=1;shape=endState;fillColor=#000000;strokeColor=#ff0000;" vertex="1" parent="osV9cEBqcGt775W0JuBJ-1">
          <mxGeometry x="120" y="550" width="30" height="30" as="geometry" />
        </mxCell>
        <mxCell id="osV9cEBqcGt775W0JuBJ-22" value="" style="edgeStyle=orthogonalEdgeStyle;html=1;verticalAlign=bottom;endArrow=open;endSize=8;strokeColor=#ff0000;rounded=0;entryX=0.5;entryY=0;entryDx=0;entryDy=0;exitX=0.5;exitY=1;exitDx=0;exitDy=0;" edge="1" parent="osV9cEBqcGt775W0JuBJ-1" source="osV9cEBqcGt775W0JuBJ-17" target="osV9cEBqcGt775W0JuBJ-21">
          <mxGeometry relative="1" as="geometry">
            <mxPoint x="145" y="490" as="targetPoint" />
            <mxPoint x="145" y="440" as="sourcePoint" />
          </mxGeometry>
        </mxCell>
        <mxCell id="osV9cEBqcGt775W0JuBJ-2" value="Sistem" style="swimlane;" vertex="1" parent="1">
          <mxGeometry x="360" y="40" width="250" height="600" as="geometry" />
        </mxCell>
        <mxCell id="osV9cEBqcGt775W0JuBJ-5" value="Menampilkan halaman utama" style="rounded=1;whiteSpace=wrap;html=1;arcSize=40;fontColor=#000000;fillColor=#ffffc0;strokeColor=#ff0000;" vertex="1" parent="osV9cEBqcGt775W0JuBJ-2">
          <mxGeometry x="65" y="90" width="120" height="40" as="geometry" />
        </mxCell>
        <mxCell id="osV9cEBqcGt775W0JuBJ-12" value="Menampilkan data penerbangan" style="rounded=1;whiteSpace=wrap;html=1;arcSize=40;fontColor=#000000;fillColor=#ffffc0;strokeColor=#ff0000;" vertex="1" parent="osV9cEBqcGt775W0JuBJ-2">
          <mxGeometry x="80" y="300" width="120" height="40" as="geometry" />
        </mxCell>
        <mxCell id="osV9cEBqcGt775W0JuBJ-16" value="Menyimpan data pemesanan" style="rounded=1;whiteSpace=wrap;html=1;arcSize=40;fontColor=#000000;fillColor=#ffffc0;strokeColor=#ff0000;" vertex="1" parent="osV9cEBqcGt775W0JuBJ-2">
          <mxGeometry x="80" y="390" width="120" height="40" as="geometry" />
        </mxCell>
        <mxCell id="osV9cEBqcGt775W0JuBJ-18" value="" style="edgeStyle=orthogonalEdgeStyle;html=1;verticalAlign=bottom;endArrow=open;endSize=8;strokeColor=#ff0000;rounded=0;entryX=0.5;entryY=0;entryDx=0;entryDy=0;exitX=0.5;exitY=1;exitDx=0;exitDy=0;" edge="1" parent="osV9cEBqcGt775W0JuBJ-2" source="osV9cEBqcGt775W0JuBJ-12" target="osV9cEBqcGt775W0JuBJ-16">
          <mxGeometry relative="1" as="geometry">
            <mxPoint x="90" y="330" as="targetPoint" />
            <mxPoint x="-45" y="330" as="sourcePoint" />
          </mxGeometry>
        </mxCell>
        <mxCell id="osV9cEBqcGt775W0JuBJ-4" value="" style="edgeStyle=orthogonalEdgeStyle;html=1;verticalAlign=bottom;endArrow=open;endSize=8;strokeColor=#ff0000;rounded=0;entryX=0.5;entryY=0;entryDx=0;entryDy=0;" edge="1" source="osV9cEBqcGt775W0JuBJ-3" parent="1" target="osV9cEBqcGt775W0JuBJ-5">
          <mxGeometry relative="1" as="geometry">
            <mxPoint x="245" y="170" as="targetPoint" />
          </mxGeometry>
        </mxCell>
        <mxCell id="osV9cEBqcGt775W0JuBJ-6" value="" style="edgeStyle=orthogonalEdgeStyle;html=1;verticalAlign=bottom;endArrow=open;endSize=8;strokeColor=#ff0000;rounded=0;entryX=0.5;entryY=0;entryDx=0;entryDy=0;" edge="1" source="osV9cEBqcGt775W0JuBJ-5" parent="1" target="osV9cEBqcGt775W0JuBJ-7">
          <mxGeometry relative="1" as="geometry">
            <mxPoint x="245" y="180" as="targetPoint" />
          </mxGeometry>
        </mxCell>
        <mxCell id="osV9cEBqcGt775W0JuBJ-14" value="" style="edgeStyle=orthogonalEdgeStyle;html=1;verticalAlign=bottom;endArrow=open;endSize=8;strokeColor=#ff0000;rounded=0;entryX=0;entryY=0.5;entryDx=0;entryDy=0;exitX=1;exitY=0.5;exitDx=0;exitDy=0;" edge="1" parent="1" source="osV9cEBqcGt775W0JuBJ-11" target="osV9cEBqcGt775W0JuBJ-12">
          <mxGeometry relative="1" as="geometry">
            <mxPoint x="255" y="180" as="targetPoint" />
            <mxPoint x="435" y="160" as="sourcePoint" />
          </mxGeometry>
        </mxCell>
        <mxCell id="osV9cEBqcGt775W0JuBJ-19" value="" style="edgeStyle=orthogonalEdgeStyle;html=1;verticalAlign=bottom;endArrow=open;endSize=8;strokeColor=#ff0000;rounded=0;entryX=1;entryY=0.5;entryDx=0;entryDy=0;exitX=0;exitY=0.5;exitDx=0;exitDy=0;" edge="1" parent="1" source="osV9cEBqcGt775W0JuBJ-16" target="osV9cEBqcGt775W0JuBJ-15">
          <mxGeometry relative="1" as="geometry">
            <mxPoint x="510" y="440" as="targetPoint" />
            <mxPoint x="510" y="390" as="sourcePoint" />
          </mxGeometry>
        </mxCell>
      </root>
    </mxGraphModel>
  </diagram>
</mxfile>
